<svg width="201" height="32" fill="none" xmlns="http://www.w3.org/2000/svg"><path d="M93.867 7.548c-6.61 0-11.626 4.813-11.626 11.3 0 6.487 4.814 11.178 11.626 11.178 6.812 0 11.748-4.813 11.748-11.26 0-6.448-4.853-11.218-11.748-11.218zm.034 16.088c-2.826 0-4.822-2.042-4.822-4.825 0-2.783 2.082-4.876 4.822-4.876 2.851 0 4.876 2.045 4.876 4.848s-2.065 4.853-4.873 4.853H93.9zM33.832 20.52c.16 1.861 1.942 3.447 4.397 3.447a5.368 5.368 0 004.348-2.219l4.357 3.368c-.593 1.226-3.444 4.593-8.84 4.593-6.843 0-11.052-4.713-11.052-10.852 0-6.14 4.13-10.973 10.237-10.973 6.616 0 10.22 4.24 10.22 11.33 0 .396 0 .832-.04 1.305H33.832zm.2-4.198h6.732c-.08-1.663-1.306-3.091-3.365-3.091-2.178 0-3.21 1.64-3.376 3.09h.008z" fill="#161A1D"/><path d="M57.228 0h-6.812v29.496h6.812V0z" fill="#0663F9"/><path d="M82.144 8.078h-7.083l-6.076 21.418h5.94l7.22-21.418z" fill="#F90E06"/><path d="M68.985 29.496h-1.976L59.666 8.078h7.303l4.052 14.24M12.856 7.053c-1.753-.01-3.488.35-5.092 1.058V.027H1V29.52h6.764v-.995a12.865 12.865 0 005.092 1.006c6.773 0 11.749-4.813 11.749-11.26 0-6.448-4.857-11.218-11.749-11.218zm.035 16.088c-2.82 0-4.816-2.042-4.816-4.825 0-2.783 2.073-4.87 4.816-4.87 2.851 0 4.876 2.044 4.876 4.847 0 2.803-2.065 4.848-4.876 4.848z" fill="#161A1D"/><path d="M112.088 20.325c2.851 0 4.876 2.042 4.876 4.848a4.743 4.743 0 01-2.995 4.518 4.732 4.732 0 01-1.881.33c-2.826 0-4.825-2.042-4.825-4.825 0-2.784 2.081-4.87 4.825-4.87zm0 0c2.851 0 4.876 2.042 4.876 4.848a4.743 4.743 0 01-2.995 4.518 4.732 4.732 0 01-1.881.33c-2.826 0-4.825-2.042-4.825-4.825 0-2.784 2.081-4.87 4.825-4.87z" fill="#F9C806"/><path d="M124.008 29h.96v-5.436h1.332v-.804h-1.332v-.324c0-.864.384-1.248 1.092-1.248.144 0 .3.024.3.024v-.828s-.192-.024-.396-.024c-1.008 0-1.956.504-1.956 2.076v.324h-.696v.804h.696V29zM127.778 25.88c0-1.368.936-2.412 2.28-2.412 1.344 0 2.304 1.032 2.304 2.412 0 1.392-.96 2.412-2.304 2.412-1.332 0-2.28-1.008-2.28-2.412zm-.972 0c0 1.896 1.38 3.276 3.252 3.276 1.872 0 3.264-1.404 3.264-3.276 0-1.872-1.368-3.276-3.252-3.276-1.86 0-3.264 1.392-3.264 3.276zM137.335 22.604c-.948 0-1.644.576-1.86 1.2V22.76h-.936V29h.948v-2.988c0-1.332.42-2.46 1.848-2.46v-.948zM141.573 29h1.728c2.808 0 4.5-1.416 4.5-4.2 0-2.628-1.632-4.2-4.5-4.2h-1.728V29zm.972-.864v-6.66h.948c2.016 0 3.312 1.224 3.312 3.324 0 2.196-1.296 3.336-3.312 3.336h-.948zM148.674 25.904c0 1.92 1.308 3.252 3.204 3.252 1.416 0 2.232-.768 2.58-1.356l-.624-.456c-.3.42-.888.972-1.944.972-1.296 0-2.232-.84-2.244-2.232h5.004c.012-.12.012-.252.012-.288 0-1.872-1.128-3.192-2.964-3.192-1.656 0-3.024 1.308-3.024 3.3zm1.02-.528c.072-1.176.984-1.956 2.004-1.956 1.032 0 1.932.66 1.992 1.956h-3.996zM158.579 29l2.4-6.24h-1.008l-1.908 5.172-1.92-5.172h-1.02l2.412 6.24h1.044zM161.47 25.904c0 1.92 1.308 3.252 3.204 3.252 1.416 0 2.232-.768 2.58-1.356l-.624-.456c-.3.42-.888.972-1.944.972-1.296 0-2.232-.84-2.244-2.232h5.004c.012-.12.012-.252.012-.288 0-1.872-1.128-3.192-2.964-3.192-1.656 0-3.024 1.308-3.024 3.3zm1.02-.528c.072-1.176.984-1.956 2.004-1.956 1.032 0 1.932.66 1.992 1.956h-3.996zM168.664 29h.948v-8.676h-.948V29zM171.794 25.88c0-1.368.936-2.412 2.28-2.412 1.344 0 2.304 1.032 2.304 2.412 0 1.392-.96 2.412-2.304 2.412-1.332 0-2.28-1.008-2.28-2.412zm-.972 0c0 1.896 1.38 3.276 3.252 3.276 1.872 0 3.264-1.404 3.264-3.276 0-1.872-1.368-3.276-3.252-3.276-1.86 0-3.264 1.392-3.264 3.276zM178.554 31.244h.948v-3.252c.192.324.9 1.164 2.208 1.164 1.764 0 2.976-1.356 2.976-3.288 0-1.908-1.272-3.264-3.048-3.264a2.582 2.582 0 00-2.172 1.14v-.984h-.912v8.484zm.912-5.376c0-1.308.816-2.4 2.112-2.4 1.2 0 2.136.936 2.136 2.4 0 1.428-.888 2.424-2.112 2.424-1.176 0-2.136-.888-2.136-2.424zM185.506 25.904c0 1.92 1.308 3.252 3.204 3.252 1.416 0 2.232-.768 2.58-1.356l-.624-.456c-.3.42-.888.972-1.944.972-1.296 0-2.232-.84-2.244-2.232h5.004c.012-.12.012-.252.012-.288 0-1.872-1.128-3.192-2.964-3.192-1.656 0-3.024 1.308-3.024 3.3zm1.02-.528c.072-1.176.984-1.956 2.004-1.956 1.032 0 1.932.66 1.992 1.956h-3.996zM195.495 22.604c-.948 0-1.644.576-1.86 1.2V22.76h-.936V29h.948v-2.988c0-1.332.42-2.46 1.848-2.46v-.948zM196.086 27.824c.276.588.864 1.332 2.172 1.332 1.212 0 2.124-.744 2.124-1.848 0-2.172-3.144-1.644-3.144-3.048 0-.54.456-.864 1.032-.864.804 0 1.128.468 1.296.804l.696-.396c-.168-.468-.768-1.2-1.932-1.2-1.128 0-2.004.636-2.004 1.692 0 2.112 3.132 1.62 3.132 3.06 0 .636-.528.996-1.152.996-.852 0-1.296-.468-1.56-.96l-.66.432z" fill="#161A1D"/></svg>